<?xml version="1.0" standalone="no"?>
<!DOCTYPE svg PUBLIC "-//W3C//DTD SVG 20010904//EN"
 "http://www.w3.org/TR/2001/REC-SVG-20010904/DTD/svg10.dtd">
<svg version="1.0" xmlns="http://www.w3.org/2000/svg"
 width="192.000000pt" height="192.000000pt" viewBox="0 0 192.000000 192.000000"
 preserveAspectRatio="xMidYMid meet">

<g transform="translate(0.000000,192.000000) scale(0.100000,-0.100000)"
fill="#000000" stroke="none">
<path d="M37 1913 c48 -5 49 -5 29 -36 -13 -19 -13 -24 0 -35 11 -10 14 -10
14 0 0 9 3 9 10 -2 8 -13 10 -13 10 2 0 9 -5 20 -10 23 -5 3 -10 11 -10 16 0
6 4 7 10 4 6 -3 7 1 4 9 -5 13 4 16 55 16 55 0 61 -2 61 -21 0 -11 -4 -17 -10
-14 -5 3 -10 2 -10 -2 0 -5 12 -14 28 -21 15 -6 20 -10 12 -8 -8 1 -19 -1 -25
-5 -58 -45 -86 -76 -97 -105 -13 -35 -23 -43 -31 -21 -3 6 -2 -15 1 -47 4 -47
2 -57 -8 -51 -9 6 -11 4 -5 -5 5 -8 7 -36 6 -62 -2 -36 1 -48 11 -46 8 2 14
-9 16 -30 2 -18 9 -35 16 -38 14 -5 11 -115 -4 -144 -4 -8 -6 -25 -5 -37 1
-12 -2 -20 -7 -17 -4 3 -8 16 -8 30 0 15 -6 24 -16 24 -8 0 -12 -5 -9 -10 4
-6 1 -17 -5 -25 -10 -12 -10 -18 -1 -29 9 -11 9 -20 2 -35 -14 -25 -14 -41 -1
-21 13 21 13 -5 0 -30 -7 -13 -6 -19 6 -24 9 -4 14 -13 10 -21 -3 -8 -2 -14 2
-14 20 3 28 -3 29 -23 2 -22 1 -22 -12 -4 -8 11 -20 16 -30 12 -14 -5 -14 -8
3 -26 12 -13 25 -18 35 -14 14 5 17 -1 17 -39 0 -25 -5 -49 -11 -53 -8 -5 -10
3 -7 25 3 21 0 31 -9 31 -7 0 -13 5 -13 10 0 6 -3 10 -8 10 -13 0 0 -81 14
-87 8 -3 14 -15 14 -26 0 -20 0 -20 -15 -1 -13 17 -14 14 -8 -33 3 -29 2 -53
-3 -53 -5 0 -7 -25 -6 -56 4 -57 13 -65 20 -16 5 36 12 42 12 9 0 -15 4 -27 9
-27 5 0 11 -14 13 -30 3 -17 1 -30 -3 -30 -4 0 13 -21 38 -46 39 -40 43 -48
29 -56 -9 -5 -16 -14 -16 -19 0 -6 4 -7 10 -4 5 3 10 2 10 -3 0 -17 -13 -22
-27 -10 -11 8 -12 7 -7 -6 3 -9 11 -16 18 -16 6 0 12 -9 13 -20 1 -11 -2 -18
-6 -15 -15 8 -19 -44 -6 -62 9 -12 10 -23 4 -36 -6 -9 -7 -22 -4 -27 3 -6 0
-10 -7 -10 -8 -1 -4 -8 9 -19 16 -13 20 -25 16 -41 -4 -14 -2 -21 4 -17 12 7
12 -47 0 -59 -12 -12 -8 -24 9 -24 13 0 14 -3 5 -13 -8 -10 -7 -17 2 -26 9
-10 8 -14 -6 -22 -22 -13 -24 -54 -2 -45 11 4 15 -2 15 -20 0 -21 3 -24 21
-19 14 5 19 3 15 -4 -5 -7 -50 -10 -127 -10 -66 1 -123 -1 -126 -5 -3 -3 428
-6 958 -6 626 0 959 4 949 10 -10 6 -11 10 -2 10 6 0 12 4 12 9 0 4 -21 5 -47
0 -27 -4 -81 -9 -120 -11 l-73 -4 0 43 c0 28 -4 43 -12 43 -9 0 -8 4 2 10 10
6 11 10 3 10 -9 0 -13 17 -13 49 0 45 -2 49 -21 44 -26 -7 -26 -9 -34 -116
l-7 -87 -59 0 -59 0 1 33 c0 30 1 31 11 9 14 -28 26 -28 30 1 2 12 13 26 26
32 24 11 24 3 24 272 l0 132 29 11 c16 7 29 19 29 26 0 8 7 14 15 14 8 0 15 5
15 11 0 6 -9 8 -22 3 -28 -9 -26 -9 -503 21 -214 14 -500 32 -635 41 -258 16
-280 21 -301 68 -8 17 -5 114 10 352 23 348 26 363 76 386 23 10 241 -1 1010
-52 283 -20 395 -24 365 -13 -8 2 -22 7 -30 10 -8 4 -19 5 -24 4 -4 -1 -14 4
-22 10 -11 9 -14 59 -14 255 l0 244 -25 6 c-63 16 -9 24 178 27 111 1 -232 3
-763 3 -531 0 -946 -1 -923 -3z m736 -10 c-7 -2 -19 -2 -25 0 -7 3 -2 5 12 5
14 0 19 -2 13 -5z m80 -3 c-14 -6 -32 -6 -45 0 -19 7 -15 9 22 9 37 0 41 -2
23 -9z m74 4 c-3 -3 -12 -4 -19 -1 -8 3 -5 6 6 6 11 1 17 -2 13 -5z m96 -1
c-7 -2 -19 -2 -25 0 -7 3 -2 5 12 5 14 0 19 -2 13 -5z m472 -2 c3 -5 1 -12 -5
-16 -5 -3 -10 1 -10 9 0 18 6 21 15 7z m-552 -78 c-7 -2 -19 -2 -25 0 -7 3 -2
5 12 5 14 0 19 -2 13 -5z m122 -4 c-5 -7 -76 -1 -85 8 -2 2 17 3 42 2 26 -2
45 -6 43 -10z m-181 -17 c2 -4 -5 -9 -17 -9 -17 -2 -19 0 -7 7 18 12 18 12 24
2z m-723 -58 c-18 -23 -21 -41 -21 -121 0 -52 5 -103 10 -113 6 -11 7 -32 3
-47 -6 -26 -7 -25 -20 22 -27 103 -13 242 29 293 22 26 21 -7 -1 -34z m79
-308 c-7 -7 -10 23 -10 94 0 152 14 180 18 36 2 -73 -1 -123 -8 -130z m-53 2
c-2 -29 -3 -6 -3 52 0 58 1 81 3 53 2 -29 2 -77 0 -105z m1328 12 c3 -6 -1 -7
-9 -4 -18 7 -21 14 -7 14 6 0 13 -4 16 -10z m-1401 -256 c10 -25 7 -54 -5 -54
-6 0 -8 8 -4 19 3 12 0 21 -10 25 -8 3 -15 10 -15 16 0 16 27 12 34 -6z m-8
-101 c-11 -11 -17 4 -9 23 7 18 8 18 11 1 2 -10 1 -21 -2 -24z m-9 -255 c-3
-8 -6 -5 -6 6 -1 11 2 17 5 13 3 -3 4 -12 1 -19z m90 -430 c-3 -7 -5 -2 -5 12
0 14 2 19 5 13 2 -7 2 -19 0 -25z m1228 -246 c-6 -6 -35 18 -35 29 0 5 9 1 20
-8 11 -9 17 -19 15 -21z m-690 8 c3 -5 1 -10 -4 -10 -6 0 -11 5 -11 10 0 6 2
10 4 10 3 0 8 -4 11 -10z m-267 -27 c-10 -2 -26 -2 -35 0 -10 3 -2 5 17 5 19
0 27 -2 18 -5z m960 0 c-10 -2 -28 -2 -40 0 -13 2 -5 4 17 4 22 1 32 -1 23 -4z
m85 0 c-13 -2 -33 -2 -45 0 -13 2 -3 4 22 4 25 0 35 -2 23 -4z m-490 -107 c23
-1 42 -7 45 -13 3 -10 -32 -13 -152 -13 -142 0 -177 6 -146 25 6 3 10 1 10 -5
0 -7 6 -8 19 0 27 14 104 13 119 -2 9 -9 12 -9 12 1 0 7 4 10 9 6 5 -3 12 -1
16 5 4 6 11 7 17 4 6 -4 29 -7 51 -8z m433 -23 c-10 -10 -19 5 -10 18 6 11 8
11 12 0 2 -7 1 -15 -2 -18z m-706 7 c0 -5 -5 -10 -11 -10 -5 0 -7 5 -4 10 3 6
8 10 11 10 2 0 4 -4 4 -10z m-83 -6 c-3 -3 -12 -4 -19 -1 -8 3 -5 6 6 6 11 1
17 -2 13 -5z m470 0 c-3 -3 -12 -4 -19 -1 -8 3 -5 6 6 6 11 1 17 -2 13 -5z"/>
<path d="M70 1770 c0 -29 4 -40 13 -38 18 7 20 53 3 68 -14 11 -16 7 -16 -30z"/>
<path d="M72 1391 c2 -33 1 -58 -3 -55 -4 2 -7 -5 -6 -16 1 -21 6 -24 31 -14
13 5 13 10 4 27 -6 12 -10 43 -9 70 2 31 -2 47 -9 47 -9 0 -11 -18 -8 -59z"/>
<path d="M368 1393 c12 -2 30 -2 40 0 9 3 -1 5 -23 4 -22 0 -30 -2 -17 -4z"/>
<path d="M553 1383 c15 -2 39 -2 55 0 15 2 2 4 -28 4 -30 0 -43 -2 -27 -4z"/>
<path d="M673 1373 c15 -2 37 -2 50 0 12 2 0 4 -28 4 -27 0 -38 -2 -22 -4z"/>
<path d="M1043 1353 c15 -2 37 -2 50 0 12 2 0 4 -28 4 -27 0 -38 -2 -22 -4z"/>
<path d="M1163 1343 c15 -2 37 -2 50 0 12 2 0 4 -28 4 -27 0 -38 -2 -22 -4z"/>
<path d="M1298 1333 c12 -2 32 -2 45 0 12 2 2 4 -23 4 -25 0 -35 -2 -22 -4z"/>
<path d="M1488 1323 c18 -2 45 -2 60 0 15 2 0 4 -33 4 -33 0 -45 -2 -27 -4z"/>
<path d="M1597 1312 c6 -4 13 -28 16 -52 l4 -45 1 53 c2 44 -1 52 -15 52 -12
0 -14 -3 -6 -8z"/>
<path d="M343 1255 c0 -33 2 -45 4 -27 2 18 2 45 0 60 -2 15 -4 0 -4 -33z"/>
<path d="M260 1290 c0 -5 5 -10 10 -10 6 0 10 5 10 10 0 6 -4 10 -10 10 -5 0
-10 -4 -10 -10z"/>
<path d="M990 1224 c0 -14 4 -23 9 -19 6 3 14 -3 20 -12 14 -25 14 0 -1 32
-14 32 -28 32 -28 -1z"/>
<path d="M1603 1155 c0 -33 2 -45 4 -27 2 18 2 45 0 60 -2 15 -4 0 -4 -33z"/>
<path d="M250 1180 c0 -11 4 -20 8 -20 4 0 8 9 9 20 1 11 -2 20 -8 20 -5 0 -9
-9 -9 -20z"/>
<path d="M333 1135 c0 -33 2 -45 4 -27 2 18 2 45 0 60 -2 15 -4 0 -4 -33z"/>
<path d="M1227 1184 c-12 -12 -8 -24 8 -24 7 0 19 -8 25 -17 9 -15 10 -13 8
12 -3 29 -25 44 -41 29z"/>
<path d="M1282 1179 c2 -6 8 -10 13 -10 5 0 11 4 13 10 2 6 -4 11 -13 11 -9 0
-15 -5 -13 -11z"/>
<path d="M1186 1173 c-11 -11 -6 -23 9 -23 8 0 15 4 15 9 0 13 -16 22 -24 14z"/>
<path d="M998 1123 c-35 -46 -37 -73 -5 -65 22 5 37 19 37 35 0 4 -9 3 -19 -3
-32 -17 -34 -12 -7 21 22 25 34 50 24 49 -2 -1 -15 -17 -30 -37z"/>
<path d="M1040 1118 c0 -25 3 -29 10 -18 7 12 12 7 24 -20 11 -24 15 -29 16
-15 0 19 -34 85 -45 85 -3 0 -5 -15 -5 -32z"/>
<path d="M582 1129 c2 -6 8 -10 13 -10 5 0 11 4 13 10 2 6 -4 11 -13 11 -9 0
-15 -5 -13 -11z"/>
<path d="M1268 1119 c-10 -5 -20 -25 -24 -44 -5 -26 -11 -35 -26 -35 -16 0
-19 5 -15 23 8 29 -8 56 -23 41 -6 -6 -12 -21 -13 -33 -1 -11 -7 -21 -14 -21
-7 0 -24 -18 -37 -39 -26 -40 -54 -67 -44 -40 18 44 18 50 -1 22 -11 -18 -32
-35 -46 -39 -29 -7 -34 -24 -6 -24 42 0 80 22 96 56 15 33 33 41 75 35 8 -1
24 -3 35 -5 12 -2 29 8 42 22 40 46 40 103 1 81z m12 -38 c0 -5 -7 -14 -15
-21 -12 -10 -15 -10 -15 2 0 8 3 18 7 21 9 10 23 9 23 -2z"/>
<path d="M645 1081 c-7 -44 -24 -62 -75 -84 l-35 -15 33 -1 c41 -1 82 36 83
76 l1 28 9 -27 c14 -37 36 -42 65 -13 29 29 31 45 4 38 -11 -3 -20 -12 -20
-20 0 -31 -35 -8 -38 25 -4 44 -19 40 -27 -7z"/>
<path d="M1333 1098 c-5 -7 -13 -22 -16 -33 -7 -19 -6 -19 7 -2 7 9 21 17 30
17 10 0 16 5 14 12 -6 17 -24 20 -35 6z"/>
<path d="M594 1065 c6 -23 2 -28 -41 -46 -45 -19 -73 -42 -73 -61 0 -5 15 -16
33 -24 l32 -15 -32 5 c-30 5 -33 3 -33 -18 0 -21 5 -24 34 -24 19 0 43 -3 55
-7 18 -5 21 -2 21 19 0 18 5 26 18 25 10 0 12 -3 5 -6 -15 -6 -18 -43 -3 -43
5 0 12 11 16 25 3 14 10 22 15 19 6 -3 7 -15 4 -25 -6 -18 -3 -20 27 -16 18 3
35 6 37 6 2 1 -2 7 -8 14 -8 10 -7 14 4 14 8 0 15 -9 15 -19 0 -11 7 -18 20
-18 18 0 25 10 21 32 0 4 57 5 127 2 70 -3 141 -1 157 4 24 7 2 11 -103 17
-73 4 -135 12 -138 16 -3 5 0 9 5 9 6 0 11 7 11 16 0 13 -3 14 -15 4 -19 -16
-43 -6 -55 22 -9 23 -9 23 -9 -2 -1 -15 4 -31 11 -38 15 -15 -32 -16 -151 -2
-105 12 -119 23 -60 48 25 11 52 27 61 36 17 16 14 56 -4 56 -6 0 -7 -11 -4
-25z m76 -170 c0 -8 -4 -15 -10 -15 -5 0 -7 7 -4 15 4 8 8 15 10 15 2 0 4 -7
4 -15z"/>
<path d="M1051 1064 c0 -11 3 -14 6 -6 3 7 2 16 -1 19 -3 4 -6 -2 -5 -13z"/>
<path d="M323 1000 c0 -41 2 -58 4 -37 2 20 2 54 0 75 -2 20 -4 3 -4 -38z"/>
<path d="M740 1035 c-10 -12 -10 -15 4 -15 9 0 16 7 16 15 0 8 -2 15 -4 15 -2
0 -9 -7 -16 -15z"/>
<path d="M810 1040 c1 -20 21 -28 67 -26 29 1 58 -1 64 -5 18 -11 49 2 61 25
9 18 9 19 -3 9 -13 -11 -119 -14 -119 -3 0 3 -16 5 -35 5 -19 0 -35 -2 -35 -5z"/>
<path d="M1140 990 c0 -5 4 -10 9 -10 6 0 13 5 16 10 3 6 -1 10 -9 10 -9 0
-16 -4 -16 -10z"/>
<path d="M1593 940 c0 -36 2 -50 4 -32 2 17 2 47 0 65 -2 17 -4 3 -4 -33z"/>
<path d="M1325 970 c-36 -24 -65 -26 -65 -4 0 12 -3 14 -12 6 -7 -5 -28 -13
-45 -17 -33 -7 -73 -46 -73 -72 0 -10 6 -12 20 -8 26 8 26 -7 -1 -31 -77 -69
-59 -155 38 -188 68 -23 77 -19 14 7 -71 29 -98 63 -82 107 6 18 24 48 41 67
34 38 36 70 5 65 -20 -3 -20 -2 -1 13 11 8 30 15 42 15 13 0 26 5 29 11 5 7
13 5 25 -6 17 -16 21 -15 55 1 34 16 54 39 43 49 -2 2 -17 -5 -33 -15z"/>
<path d="M1721 964 c0 -11 3 -14 6 -6 3 7 2 16 -1 19 -3 4 -6 -2 -5 -13z"/>
<path d="M1826 940 c-16 -5 -33 -15 -37 -22 -13 -20 -10 -65 6 -104 17 -42 90
-127 111 -130 19 -3 18 18 -3 47 -50 68 -54 95 -18 109 20 8 25 16 25 43 0 20
-7 41 -18 50 -21 19 -24 19 -66 7z"/>
<path d="M1220 900 c0 -5 7 -10 15 -10 8 0 15 5 15 10 0 6 -7 10 -15 10 -8 0
-15 -4 -15 -10z"/>
<path d="M780 880 c0 -11 4 -20 9 -20 5 0 7 9 4 20 -3 11 -7 20 -9 20 -2 0 -4
-9 -4 -20z"/>
<path d="M812 880 c0 -14 2 -19 5 -12 2 6 2 18 0 25 -3 6 -5 1 -5 -13z"/>
<path d="M840 881 c0 -14 25 -20 40 -11 8 5 19 6 25 2 16 -10 35 -11 35 -2 0
5 -4 12 -10 15 -5 3 -10 1 -10 -4 0 -7 -7 -7 -20 1 -17 11 -22 10 -30 -2 -6
-10 -10 -11 -10 -2 0 6 -4 12 -10 12 -5 0 -10 -4 -10 -9z"/>
<path d="M990 876 c0 -2 7 -6 15 -10 8 -3 15 -1 15 4 0 6 -7 10 -15 10 -8 0
-15 -2 -15 -4z"/>
<path d="M1055 869 c-4 -6 -5 -12 -2 -15 2 -3 7 2 10 11 7 17 1 20 -8 4z"/>
<path d="M1080 861 c0 -6 9 -9 19 -8 11 0 17 5 15 9 -7 11 -34 10 -34 -1z"/>
<path d="M1583 810 c0 -36 2 -50 4 -32 2 17 2 47 0 65 -2 17 -4 3 -4 -33z"/>
<path d="M313 800 c0 -30 2 -43 4 -27 2 15 2 39 0 55 -2 15 -4 2 -4 -28z"/>
<path d="M1697 738 c-12 -95 -12 -95 36 -104 23 -4 47 -7 54 -6 6 2 34 -6 61
-16 29 -11 56 -16 63 -11 7 4 11 10 9 11 -9 7 -85 36 -128 49 -54 16 -67 31
-50 58 11 18 10 24 -13 47 l-26 26 -6 -54z"/>
<path d="M1573 690 c0 -30 2 -43 4 -27 2 15 2 39 0 55 -2 15 -4 2 -4 -28z"/>
<path d="M302 688 l-2 -38 58 2 57 2 -52 3 c-50 4 -52 5 -56 36 -4 31 -4 31
-5 -5z"/>
<path d="M75 639 c-9 -14 -9 -71 0 -99 5 -15 4 -20 -4 -16 -6 4 -11 0 -11 -8
0 -9 6 -16 13 -16 8 0 7 -3 -3 -10 -8 -5 -11 -12 -7 -16 4 -4 2 -13 -4 -20 -6
-8 -8 -22 -4 -31 12 -27 13 -53 2 -53 -5 0 -4 -6 2 -14 8 -10 9 -16 1 -21 -5
-3 -10 -12 -10 -18 0 -7 4 -6 10 3 6 10 10 11 10 3 0 -25 28 -13 33 15 4 18 1
31 -11 40 -15 11 -15 14 -2 22 8 6 21 8 28 5 9 -3 10 3 6 20 -5 20 -2 25 12
25 16 0 16 -2 4 -10 -8 -5 -11 -12 -7 -17 5 -4 12 -1 17 7 17 27 11 37 -19 32
-22 -3 -28 -8 -24 -20 4 -9 2 -13 -4 -9 -10 7 -12 36 -12 165 0 52 -4 62 -16
41z"/>
<path d="M548 643 c12 -2 30 -2 40 0 9 3 -1 5 -23 4 -22 0 -30 -2 -17 -4z"/>
<path d="M653 633 c15 -2 39 -2 55 0 15 2 2 4 -28 4 -30 0 -43 -2 -27 -4z"/>
<path d="M798 623 c12 -2 32 -2 45 0 12 2 2 4 -23 4 -25 0 -35 -2 -22 -4z"/>
<path d="M1133 603 c15 -2 39 -2 55 0 15 2 2 4 -28 4 -30 0 -43 -2 -27 -4z"/>
<path d="M1273 593 c15 -2 39 -2 55 0 15 2 2 4 -28 4 -30 0 -43 -2 -27 -4z"/>
<path d="M1478 583 c17 -2 47 -2 65 0 17 2 3 4 -33 4 -36 0 -50 -2 -32 -4z"/>
<path d="M1886 529 c-15 -4 -36 -14 -45 -22 -9 -8 -26 -18 -38 -21 -12 -4 -41
-29 -63 -56 -36 -42 -42 -57 -42 -95 0 -50 15 -79 68 -130 41 -41 115 -78 138
-69 25 10 19 51 -14 92 -30 38 -64 151 -53 179 3 8 17 14 32 13 40 -3 51 -1
51 10 0 5 -16 12 -35 16 -39 7 -48 24 -12 24 12 0 29 4 37 10 12 8 12 10 -3
16 -17 6 -17 7 0 19 24 18 15 24 -21 14z m-90 -146 c0 -21 3 -51 7 -68 5 -21
4 -25 -2 -14 -14 21 -29 91 -24 107 9 24 18 11 19 -25z m-26 -113 c6 -11 8
-20 6 -20 -3 0 -10 9 -16 20 -6 11 -8 20 -6 20 3 0 10 -9 16 -20z"/>
<path d="M116 508 c-10 -38 -6 -45 9 -18 17 29 18 40 6 40 -5 0 -11 -10 -15
-22z"/>
<path d="M115 322 c-3 -14 -4 -27 0 -30 3 -3 5 0 5 6 0 7 6 12 14 12 7 0 16 8
18 18 4 12 -1 18 -13 18 -11 0 -20 -10 -24 -24z"/>
<path d="M1592 331 c4 -13 18 -16 19 -4 0 4 -5 9 -11 12 -7 2 -11 -2 -8 -8z"/>
<path d="M60 261 c-10 -20 -7 -23 16 -20 4 0 11 -5 15 -13 7 -10 9 -10 9 2 -1
8 -7 23 -15 33 -13 18 -14 18 -25 -2z"/>
<path d="M115 260 c-3 -6 1 -7 9 -4 18 7 21 14 7 14 -6 0 -13 -4 -16 -10z"/>
<path d="M167 251 c-4 -17 -3 -21 5 -13 5 5 8 16 6 23 -3 8 -7 3 -11 -10z"/>
<path d="M68 164 c3 -29 9 -44 18 -44 20 0 18 47 -4 70 -16 18 -17 17 -14 -26z"/>
<path d="M121 134 c0 -11 3 -14 6 -6 3 7 2 16 -1 19 -3 4 -6 -2 -5 -13z"/>
<path d="M76 75 c7 -43 14 -59 14 -32 0 10 6 17 13 17 8 0 9 3 1 8 -6 4 -16
16 -23 27 -10 17 -10 14 -5 -20z"/>
</g>
</svg>
